<svg xmlns="http://www.w3.org/2000/svg" xmlns:xlink="http://www.w3.org/1999/xlink" id="Layer_1" viewBox="0 0 24 24"><defs><style>      .st0 {        fill: url(#linear-gradient);      }    </style><linearGradient id="linear-gradient" x1="3.04" y1="18.62" x2="22.41" y2="7.44" gradientUnits="userSpaceOnUse"><stop offset="0" stop-color="#1507be"></stop><stop offset=".16" stop-color="#1808bb"></stop><stop offset=".3" stop-color="#230db4"></stop><stop offset=".43" stop-color="#3516a8"></stop><stop offset=".56" stop-color="#4e2297"></stop><stop offset=".68" stop-color="#6e3182"></stop><stop offset=".8" stop-color="#964467"></stop><stop offset=".92" stop-color="#c55a48"></stop><stop offset="1" stop-color="#e96b31"></stop></linearGradient></defs><path class="st0" d="M17.5,21h1v-2.5h2.5v-1h-2.5v-2.5h-1v2.5h-2.5v1h2.5v2.5ZM18,23c-1.38,0-2.56-.49-3.54-1.46s-1.46-2.15-1.46-3.54.49-2.56,1.46-3.54,2.15-1.46,3.54-1.46,2.56.49,3.54,1.46,1.46,2.15,1.46,3.54-.49,2.56-1.46,3.54-2.15,1.46-3.54,1.46ZM9,7v-2h12v2h-12ZM5,20c-.55,0-1.02-.2-1.41-.59-.39-.39-.59-.86-.59-1.41s.2-1.02.59-1.41c.39-.39.86-.59,1.41-.59s1.02.2,1.41.59c.39.39.59.86.59,1.41s-.2,1.02-.59,1.41c-.39.39-.86.59-1.41.59ZM5,14c-.55,0-1.02-.2-1.41-.59-.39-.39-.59-.86-.59-1.41s.2-1.02.59-1.41c.39-.39.86-.59,1.41-.59s1.02.2,1.41.59c.39.39.59.86.59,1.41s-.2,1.02-.59,1.41c-.39.39-.86.59-1.41.59ZM5,8c-.55,0-1.02-.2-1.41-.59-.39-.39-.59-.86-.59-1.41s.2-1.02.59-1.41c.39-.39.86-.59,1.41-.59s1.02.2,1.41.59c.39.39.59.86.59,1.41s-.2,1.02-.59,1.41c-.39.39-.86.59-1.41.59ZM9,19v-2h2.08c-.05.33-.08.67-.08,1s.03.67.08,1h-2.08ZM9,13v-2h9c-.95,0-1.84.18-2.68.54-.83.36-1.57.85-2.2,1.46h-4.13Z"></path></svg>